<svg xmlns="http://www.w3.org/2000/svg" viewBox="0 0 32 32" width="32" height="32">
  <defs>
    <linearGradient id="grad1" x1="0%" y1="0%" x2="100%" y2="100%">
      <stop offset="0%" style="stop-color:#4F46E5;stop-opacity:1" />
      <stop offset="100%" style="stop-color:#7C3AED;stop-opacity:1" />
    </linearGradient>
  </defs>
  
  <!-- Background circle -->
  <circle cx="16" cy="16" r="15" fill="url(#grad1)" stroke="#1E1B4B" stroke-width="1"/>
  
  <!-- Calendar grid -->
  <rect x="6" y="8" width="20" height="16" rx="2" fill="white" opacity="0.95"/>
  
  <!-- Calendar header -->
  <rect x="6" y="8" width="20" height="4" rx="2" fill="#1E1B4B"/>
  
  <!-- Calendar dots (days) -->
  <circle cx="9" cy="15" r="1.2" fill="#4F46E5"/>
  <circle cx="13" cy="15" r="1.2" fill="#6B7280"/>
  <circle cx="17" cy="15" r="1.2" fill="#6B7280"/>
  <circle cx="21" cy="15" r="1.2" fill="#6B7280"/>
  <circle cx="23" cy="15" r="1.2" fill="#6B7280"/>
  
  <circle cx="9" cy="18" r="1.2" fill="#6B7280"/>
  <circle cx="13" cy="18" r="1.2" fill="#EF4444"/>
  <circle cx="17" cy="18" r="1.2" fill="#10B981"/>
  <circle cx="21" cy="18" r="1.2" fill="#6B7280"/>
  <circle cx="23" cy="18" r="1.2" fill="#6B7280"/>
  
  <circle cx="9" cy="21" r="1.2" fill="#6B7280"/>
  <circle cx="13" cy="21" r="1.2" fill="#6B7280"/>
  <circle cx="17" cy="21" r="1.2" fill="#F59E0B"/>
  <circle cx="21" cy="21" r="1.2" fill="#6B7280"/>
  <circle cx="23" cy="21" r="1.2" fill="#6B7280"/>
</svg>
